<svg width="40" height="40" viewBox="0 0 40 40" fill="none" xmlns="http://www.w3.org/2000/svg"><path d="M22 1.153l13.32 7.69a4 4 0 012 3.465v15.381a4 4 0 01-2 3.464L22 38.843a4 4 0 01-4 0l-13.32-7.69a4 4 0 01-2-3.464V12.308a4 4 0 012-3.464L18 1.154a4 4 0 014 0z" fill="url(#paint0_linear_2150_13946)"/><g clip-path="url(#clip0_2150_13946)"><path d="M20 30.591c5.85 0 10.593-4.742 10.593-10.592 0-5.85-4.743-10.593-10.593-10.593S9.407 14.15 9.407 20 14.15 30.59 20 30.59z" stroke="#DADADA" stroke-width=".815"/><path d="M12.911 23.344H27.13v1.14H12.91v-1.14z" fill="#F3342F"/><path fill-rule="evenodd" clip-rule="evenodd" d="M13.793 16.5h.815v.57h.57v-.57h.815v.62c.787.138 1.192.553 1.192 1.115 0 .526-.41.892-.994.998v.045c.643.025 1.202.443 1.202 1.108 0 .643-.504 1.136-1.4 1.259v.559h-.815v-.53h-.57v.53h-.815v-.53h-.637V17.07h.637v-.57zm.648 4.277V19.68h.817c.491 0 .792.225.792.578 0 .326-.26.52-.815.52h-.794zm0-1.814v-1.01h.732c.428 0 .7.192.7.498 0 .323-.3.512-.721.512h-.711z" fill="#fff"/><path d="M17.881 21.794h3.747v-.978h-3.747v.978zm.163-3.912h3.422v-.937h-3.422v.937zm.326 1.834h2.77V18.9h-2.77v.815zM24.416 21.794c1.624 0 2.632-.912 2.632-2.427 0-1.513-1.008-2.422-2.635-2.422h-1.969v4.849h1.972zm-.683-1v-2.85h.615c.917 0 1.409.379 1.409 1.423 0 1.049-.492 1.427-1.39 1.427h-.634z" fill="#fff"/></g><defs><linearGradient id="paint0_linear_2150_13946" x1="2.679" y1=".617" x2="41.198" y2="35.041" gradientUnits="userSpaceOnUse"><stop stop-color="#181818"/><stop offset="1"/></linearGradient><clipPath id="clip0_2150_13946"><path fill="#fff" transform="translate(9 9)" d="M0 0h22v22H0z"/></clipPath></defs></svg>