<svg width="40" height="40" viewBox="0 0 40 40" fill="none" xmlns="http://www.w3.org/2000/svg"><path d="M22 1.153l13.32 7.69a4 4 0 012 3.465v15.381a4 4 0 01-2 3.464L22 38.843a4 4 0 01-4 0l-13.32-7.69a4 4 0 01-2-3.464V12.308a4 4 0 012-3.464L18 1.154a4 4 0 014 0z" fill="url(#paint0_linear_2150_12883)"/><path d="M31 20c0 6.075-4.925 11-11 11S9 26.075 9 20 13.925 9 20 9s11 4.925 11 11zm-20.907 0c0 5.471 4.435 9.907 9.907 9.907 5.471 0 9.907-4.436 9.907-9.907 0-5.472-4.436-9.907-9.907-9.907-5.472 0-9.907 4.435-9.907 9.907z" fill="url(#paint1_linear_2150_12883)" stroke="#51F3FB" stroke-width=".132"/><path d="M30.521 16.788c-1.412-4.62-5.79-7.957-10.905-7.781-5.83.2-10.526 4.993-10.613 10.825C8.91 25.974 13.879 31 20 31c5.014 0 9.255-3.371 10.575-7.965.277-.965.425-1.983.425-3.035 0-1.117-.167-2.196-.479-3.212zm-10.52 13.053c-5.557 0-10.053-4.629-9.834-10.232.204-5.236 4.542-9.424 9.782-9.451 4.325-.022 8.015 2.76 9.356 6.63A9.786 9.786 0 0129.843 20a9.778 9.778 0 01-.48 3.035C28.083 26.982 24.37 29.84 20 29.84z" fill="url(#paint2_linear_2150_12883)" stroke="#7AF1F3" stroke-width=".107" stroke-miterlimit="10"/><path fill-rule="evenodd" clip-rule="evenodd" d="M23.617 17.602c-.146-1.268-1.255-1.677-2.654-1.77l-.027-1.77-1.082.014.026 1.717c-.277 0-.568.013-.858.026l-.026-1.73-1.083.013.026 1.77c-.238.014-.462.014-.686.026l-1.493.027.026 1.148s.793-.026.78-.013c.435-.013.58.238.633.462l.04 2.007.053 2.813c-.014.132-.093.357-.396.357.013.013-.78.013-.78.013l-.198 1.294 1.4-.026h.78l.026 1.782 1.082-.013-.026-1.77c.29 0 .58 0 .858-.013l.026 1.756 1.083-.013-.026-1.782c1.81-.132 3.077-.608 3.209-2.311.105-1.374-.555-1.968-1.585-2.192.594-.33.977-.899.871-1.822zm-4.24 5.07c.886 0 2.814-.012 2.8-1.227-.026-1.255-1.875-1.175-2.786-1.136-.106 0-.185.014-.264.014l.04 2.364c.065-.014.131-.014.21-.014zm2.233-4.555c.013 1.11-1.585 1.11-2.325 1.11h-.171l-.04-2.153c.066 0 .132 0 .225-.013.753-.014 2.297-.08 2.31 1.056z" fill="url(#paint3_linear_2150_12883)"/><path d="M18.124 25.814a.053.053 0 01-.054-.052l-.026-1.73h-.726l-1.399.026a.059.059 0 01-.041-.019.05.05 0 01-.012-.043l.198-1.294a.053.053 0 01.053-.045c.264 0 .693-.003.76-.01a.055.055 0 01.019-.003c.278 0 .332-.212.342-.306l-.053-2.81-.04-2c-.07-.29-.258-.426-.578-.416-.006 0-.013-.001-.019-.003-.067-.005-.496.007-.76.016a.054.054 0 01-.055-.052l-.027-1.149c0-.014.005-.028.015-.038a.055.055 0 01.037-.016l1.493-.027c.112-.006.224-.01.342-.013.095-.003.192-.005.291-.01l-.026-1.718a.053.053 0 01.053-.054l1.083-.014c.03 0 .054.024.054.053l.025 1.675c.251-.012.507-.022.752-.024l-.026-1.663a.053.053 0 01.053-.054l1.083-.013c.03 0 .053.023.054.052l.026 1.72c1.683.122 2.527.699 2.654 1.814.093.81-.17 1.417-.784 1.807 1.1.284 1.59 1.01 1.497 2.218-.063.822-.39 1.406-1 1.786-.5.31-1.202.493-2.207.57l.025 1.732a.053.053 0 01-.052.054l-1.083.014a.052.052 0 01-.054-.053l-.026-1.701c-.244.01-.501.01-.751.01l.026 1.716a.054.054 0 01-.053.054l-1.083.013zm-.33-1.89h.303c.03 0 .053.024.053.053l.026 1.73.976-.012-.026-1.716c0-.014.006-.028.015-.038a.053.053 0 01.039-.016c.284 0 .58 0 .855-.014.016 0 .029.005.04.015.01.01.016.023.017.038l.025 1.703.976-.012-.026-1.73c0-.028.022-.051.05-.053 2.637-.193 3.077-1.201 3.16-2.262.092-1.207-.398-1.886-1.543-2.136a.053.053 0 01-.042-.044.054.054 0 01.027-.054c.653-.363.937-.959.844-1.77-.122-1.066-.95-1.613-2.604-1.722a.053.053 0 01-.05-.053l-.026-1.716-.976.012.026 1.663a.056.056 0 01-.015.038.054.054 0 01-.038.016c-.276 0-.571.014-.856.026a.052.052 0 01-.04-.014.053.053 0 01-.016-.038l-.026-1.677-.976.012.026 1.716a.054.054 0 01-.05.054c-.118.007-.234.01-.346.013-.117.003-.228.006-.341.013l-1.441.026.024 1.041c.48-.016.656-.02.725-.011.37-.01.607.163.688.503l.001.011.039 1.955h.066c.03 0 .054.024.054.054 0 .029-.024.053-.054.053h-.064l.052 2.759v.006c-.02.195-.148.404-.45.404-.068.012-.245.014-.733.014l-.181 1.186 1.336-.026h.477zm1.373-1.187a.054.054 0 01-.053-.053l-.04-2.363c0-.014.005-.028.015-.038a.054.054 0 01.038-.016c.035 0 .07-.003.109-.006.045-.004.096-.008.155-.008.68-.03 1.948-.084 2.529.46.2.188.305.433.311.728a.943.943 0 01-.276.699c-.577.584-1.928.584-2.577.584-.078 0-.14 0-.2.012h-.011v.001zm.014-2.365l.038 2.25c.05-.004.102-.004.16-.004.634 0 1.954 0 2.5-.553a.839.839 0 00.245-.622.886.886 0 00-.277-.652c-.548-.514-1.788-.46-2.454-.43a1.79 1.79 0 00-.212.011zm.105-1.094h-.172a.053.053 0 01-.053-.053l-.04-2.152c0-.014.006-.028.015-.038a.053.053 0 01.039-.016c.066 0 .128 0 .217-.013h.006l.073-.002c.577-.011 1.545-.03 2.016.428a.93.93 0 01.276.683.9.9 0 01-.257.668c-.49.495-1.55.495-2.12.495zm-.12-.107h.12c.554 0 1.586 0 2.044-.463a.799.799 0 00.227-.592.825.825 0 00-.244-.607c-.44-.427-1.38-.408-1.94-.398l-.07.002c-.069.01-.124.012-.174.012l.038 2.047z" fill="#52F7FF"/><defs><linearGradient id="paint0_linear_2150_12883" x1="2.679" y1=".617" x2="41.198" y2="35.041" gradientUnits="userSpaceOnUse"><stop stop-color="#1F484D"/><stop offset="1" stop-color="#143438"/></linearGradient><linearGradient id="paint1_linear_2150_12883" x1="10.76" y1="11.64" x2="19.348" y2="32.24" gradientUnits="userSpaceOnUse"><stop stop-color="#0B706E"/><stop offset="1" stop-color="#51F3FB"/></linearGradient><linearGradient id="paint2_linear_2150_12883" x1="9.358" y1="10.134" x2="32.679" y2="31.753" gradientUnits="userSpaceOnUse"><stop stop-color="#FF7FC7"/><stop offset=".03" stop-color="#D581BE"/><stop offset=".06" stop-color="#A484B4"/><stop offset=".1" stop-color="#7887AA"/><stop offset=".14" stop-color="#5389A3"/><stop offset=".18" stop-color="#358B9C"/><stop offset=".22" stop-color="#1E8D98"/><stop offset=".26" stop-color="#0D8E94"/><stop offset=".31" stop-color="#048E92"/><stop offset=".38" stop-color="#018F92"/><stop offset=".5" stop-color="#039295"/><stop offset=".62" stop-color="#0C9EA1"/><stop offset=".74" stop-color="#1BB1B5"/><stop offset=".85" stop-color="#30CBD1"/><stop offset=".97" stop-color="#4AEDF4"/><stop offset="1" stop-color="#52F7FF"/></linearGradient><linearGradient id="paint3_linear_2150_12883" x1="17.722" y1="18.168" x2="23.298" y2="24.691" gradientUnits="userSpaceOnUse"><stop stop-color="#52F7FF"/><stop offset=".18" stop-color="#50F3FB"/><stop offset=".34" stop-color="#4BE9F0"/><stop offset=".48" stop-color="#42D9DE"/><stop offset=".63" stop-color="#36C1C5"/><stop offset=".76" stop-color="#26A3A5"/><stop offset=".9" stop-color="#137E7D"/><stop offset="1" stop-color="#035E5B"/></linearGradient></defs></svg>