<svg width="40" height="40" viewBox="0 0 40 40" fill="none" xmlns="http://www.w3.org/2000/svg"><path d="M22 1.153l13.32 7.69a4 4 0 012 3.465v15.381a4 4 0 01-2 3.464L22 38.843a4 4 0 01-4 0l-13.32-7.69a4 4 0 01-2-3.464V12.308a4 4 0 012-3.464L18 1.154a4 4 0 014 0z" fill="url(#paint0_linear_2150_15261)"/><g clip-path="url(#clip0_2150_15261)"><path d="M20 9.125c-6.009 0-10.88 4.871-10.88 10.88 0 6.008 4.872 10.879 10.88 10.879 6.008 0 10.88-4.871 10.88-10.88 0-6.008-4.871-10.879-10.88-10.879zm0 21.031c-5.607 0-10.152-4.545-10.152-10.152 0-5.606 4.545-10.151 10.152-10.151 5.607 0 10.152 4.545 10.152 10.151 0 5.607-4.545 10.152-10.152 10.152z" fill="url(#paint1_linear_2150_15261)"/><path d="M26.109 15.529a1.685 1.685 0 10-3.37 0 1.685 1.685 0 003.37 0zm0 4.477a1.685 1.685 0 10-3.371 0 1.685 1.685 0 003.37 0zm-4.424 0a1.685 1.685 0 10-3.37 0 1.685 1.685 0 003.37 0zm0 4.477a1.685 1.685 0 10-3.37 0 1.685 1.685 0 003.37 0zm-4.423 0a1.685 1.685 0 10-3.37 0 1.685 1.685 0 003.37 0zm3.308-8.954a.57.57 0 10-1.14 0 .57.57 0 001.14 0zm-4.423 4.477a.57.57 0 10-1.141 0 .57.57 0 001.14 0z" fill="url(#paint2_linear_2150_15261)"/></g><defs><linearGradient id="paint0_linear_2150_15261" x1="2.679" y1=".617" x2="41.198" y2="35.041" gradientUnits="userSpaceOnUse"><stop stop-color="#033539"/><stop offset="1" stop-color="#0F1818"/></linearGradient><linearGradient id="paint1_linear_2150_15261" x1="11.797" y1="27.151" x2="28.203" y2="12.858" gradientUnits="userSpaceOnUse"><stop stop-color="#00DD52"/><stop offset=".07" stop-color="#05DC59"/><stop offset=".17" stop-color="#14DC6D"/><stop offset=".3" stop-color="#2DDB8E"/><stop offset=".43" stop-color="#4FDABB"/><stop offset=".53" stop-color="#6BD9E1"/><stop offset="1" stop-color="#00DD52"/></linearGradient><linearGradient id="paint2_linear_2150_15261" x1="13.738" y1="26.201" x2="24.953" y2="16.43" gradientUnits="userSpaceOnUse"><stop offset=".02" stop-color="#FF0200"/><stop offset=".47" stop-color="#FFB900"/><stop offset=".58" stop-color="#FCB901"/><stop offset=".65" stop-color="#F3BA04"/><stop offset=".71" stop-color="#E4BC0A"/><stop offset=".77" stop-color="#CFBE12"/><stop offset=".82" stop-color="#B3C21D"/><stop offset=".86" stop-color="#91C62A"/><stop offset=".91" stop-color="#69CB3A"/><stop offset=".95" stop-color="#3AD04C"/><stop offset=".99" stop-color="#07D761"/><stop offset="1" stop-color="#00D864"/></linearGradient><clipPath id="clip0_2150_15261"><path fill="#fff" transform="translate(9 9)" d="M0 0h22v22H0z"/></clipPath></defs></svg>