<svg width="40" height="40" viewBox="0 0 40 40" fill="none" xmlns="http://www.w3.org/2000/svg"><path d="m22 1.153 13.32 7.69a4 4 0 0 1 2 3.465v15.381a4 4 0 0 1-2 3.464L22 38.843a4 4 0 0 1-4 0l-13.32-7.69a4 4 0 0 1-2-3.464V12.308a4 4 0 0 1 2-3.464L18 1.154a4 4 0 0 1 4 0z" fill="url(#a)"/><path d="M21.028 16.509c1.133 0 1.992.135 2.679.385a4.3 4.3 0 0 0-.933-1.462c-.88-.902-2.05-1.432-4.295-1.432h-1.977v10.372h1.977q.284 0 .572-.024v-7.84h1.977z" fill="#6B41BD"/><path d="M28.29 17.499a6.8 6.8 0 0 0-2.57-2.546l.022.037c.667 1.165.936 2.635.936 4.174q0 .758-.108 1.453c.047.333-7.519 6.249-7.519 6.249v-.063q-.228.01-.461.01h-2.1v2.509h4.647q2.418 0 4.253-.946 1.837-.945 2.836-2.67 1-1.725 1-4.034c0-1.539-.27-3.009-.936-4.174z" fill="#9B74EB"/><path d="M19.051 26.786v-2.472a7 7 0 0 1-.571.025h-1.977V13.967h1.977c2.245 0 3.415.53 4.294 1.431q.606.622.933 1.462c.673.245 1.18.6 1.616 1.047q1.011 1.038 1.247 2.692.108-.696.109-1.453c0-1.54-.27-3.01-.936-4.174l-.023-.037a8 8 0 0 0-.296-.162c-1.224-.63-2.674-.812-4.286-.812h-4.647v12.834h2.099q.233 0 .461-.01z" fill="#000"/><path d="M22.875 12.28c1.223.631 2.2 1.543 2.867 2.709.667 1.165.936 2.634.936 4.173q0 2.309-1 4.034c-1 1.725-1.612 2.04-2.835 2.67q-1.836.946-4.254.946h-4.646V11.469h4.646c1.612 0 3.062.182 4.286.812zm-.101 10.597q1.319-1.319 1.319-3.715t-1.32-3.748c-.879-.9-2.048-1.431-4.294-1.431h-1.977v10.372h1.977c1.612 0 3.415-.6 4.295-1.478" fill="#fff"/><defs><linearGradient id="a" x1="2.679" y1=".617" x2="41.198" y2="35.041" gradientUnits="userSpaceOnUse"><stop stop-color="#8150E7"/><stop offset="1" stop-color="#5D29C9"/></linearGradient></defs></svg>