<svg width="40" height="40" viewBox="0 0 40 40" fill="none" xmlns="http://www.w3.org/2000/svg"><path d="M22 1.153l13.32 7.69a4 4 0 012 3.465v15.381a4 4 0 01-2 3.464L22 38.843a4 4 0 01-4 0l-13.32-7.69a4 4 0 01-2-3.464V12.308a4 4 0 012-3.464L18 1.154a4 4 0 014 0z" fill="url(#paint0_linear_2150_13617)"/><path d="M22.549 25.326v4.67l5.717-8.074-5.717 3.404z" fill="#B7C4C4"/><path d="M11.5 21.922l5.76 3.404v4.67l-5.76-8.074z" fill="#FCFEFF"/><path d="M25.622 19.515l-5.717-2.619V10l5.716 9.515z" fill="#B7C4C4"/><path d="M25.622 19.517l-5.717 3.405v-6.024l5.716 2.62z" fill="#869292"/><path d="M14.144 19.517l5.76-2.619v6.024" fill="#B7C4C4"/><path d="M19.905 16.896l-5.76 2.62L19.904 10v6.896z" fill="#FCFEFF"/><defs><linearGradient id="paint0_linear_2150_13617" x1="2.679" y1=".617" x2="41.198" y2="35.041" gradientUnits="userSpaceOnUse"><stop stop-color="#4A5756"/><stop offset="1" stop-color="#2C3333"/></linearGradient></defs></svg>