<svg width="40" height="40" viewBox="0 0 40 40" fill="none" xmlns="http://www.w3.org/2000/svg"><path d="M22 1.153l13.32 7.69a4 4 0 012 3.465v15.381a4 4 0 01-2 3.464L22 38.843a4 4 0 01-4 0l-13.32-7.69a4 4 0 01-2-3.464V12.308a4 4 0 012-3.464L18 1.154a4 4 0 014 0z" fill="url(#paint0_linear_2150_11494)"/><g clip-path="url(#clip0_2150_11494)"><path d="M20 30.897c-6.005 0-10.89-4.885-10.89-10.89 0-6.005 4.885-10.89 10.89-10.89 6.005 0 10.89 4.885 10.89 10.89 0 6.005-4.885 10.89-10.89 10.89zm0-20.634c-5.372 0-9.744 4.371-9.744 9.744 0 5.373 4.371 9.744 9.744 9.744 5.373 0 9.744-4.371 9.744-9.744 0-5.373-4.372-9.744-9.744-9.744z" fill="url(#paint1_linear_2150_11494)"/><path d="M20 30.948c-6.034 0-10.943-4.909-10.943-10.943 0-6.033 4.91-10.942 10.943-10.942 6.034 0 10.943 4.909 10.943 10.942 0 6.034-4.91 10.943-10.943 10.943zm0-21.78c-5.976 0-10.837 4.862-10.837 10.837 0 5.976 4.861 10.838 10.837 10.838s10.837-4.862 10.837-10.838c0-5.975-4.861-10.837-10.837-10.837zm0 20.634c-5.402 0-9.797-4.395-9.797-9.797 0-5.402 4.395-9.796 9.797-9.796 5.402 0 9.797 4.394 9.797 9.796 0 5.402-4.395 9.797-9.797 9.797zm0-19.488c-5.343 0-9.691 4.348-9.691 9.691 0 5.344 4.347 9.691 9.691 9.691s9.691-4.347 9.691-9.69c0-5.345-4.348-9.692-9.691-9.692z" fill="#7AF1F3"/><path d="M19.999 18.496l-3.654 1.66L20 14.095v4.402zm0 0l-3.654 1.66L20 22.317v-3.82zm3.654 1.66l-3.654-6.062v4.402l3.654 1.66zm-3.654 2.16l3.654-2.16-3.654-1.66v3.82zm-3.654-1.466L20 25.997v-2.99l-3.654-2.158zM20 23.008v2.99l3.656-5.149-3.656 2.159z" fill="url(#paint2_linear_2150_11494)"/><path d="M19.968 14.15l-3.616 6.006.09.055 3.617-6.006-.09-.054z" fill="#52F7FF"/><path d="M19.988 22.363l-.008-.005-3.61-2.134a.052.052 0 01-.018-.073l.005-.01.046.028.02-.036 3.619 2.14-.054.09zM23.588 20.208l-3.619-6.005.031-.018-.039-.024.008-.012c.02-.032.071-.032.09 0l.007.01 3.612 5.994-.09.054z" fill="#52F7FF"/><path d="M20.015 22.375a.054.054 0 01-.027-.008l-.008-.005.03-.05-.022-.036 3.573-2.112-.057-.094.09-.054.085.14a.053.053 0 01-.018.073l-3.62 2.138a.054.054 0 01-.026.008zM19.971 25.995l-3.618-5.099a.053.053 0 01.005-.066.053.053 0 01.065-.01l3.618 2.138-.053.091-3.405-2.012 3.475 4.897-.087.061z" fill="#52F7FF"/><path d="M20.015 26.017a.053.053 0 01-.044-.023l-.009-.013.039-.027-.03-.021 3.478-4.897-3.408 2.012a.053.053 0 01-.053 0l-.015-.008.032-.053-.017-.03 3.62-2.137a.053.053 0 01.066.01.054.054 0 01.004.066l-3.62 5.099a.053.053 0 01-.043.022z" fill="#52F7FF"/></g><defs><linearGradient id="paint0_linear_2150_11494" x1="2.679" y1=".617" x2="41.198" y2="35.041" gradientUnits="userSpaceOnUse"><stop stop-color="#1F484D"/><stop offset="1" stop-color="#143438"/></linearGradient><linearGradient id="paint1_linear_2150_11494" x1="9.216" y1="9.518" x2="31.326" y2="31.024" gradientUnits="userSpaceOnUse"><stop stop-color="#FF7FC7"/><stop offset=".03" stop-color="#D581BE"/><stop offset=".06" stop-color="#A484B4"/><stop offset=".1" stop-color="#7887AA"/><stop offset=".14" stop-color="#5389A3"/><stop offset=".18" stop-color="#358B9C"/><stop offset=".22" stop-color="#1E8D98"/><stop offset=".26" stop-color="#0D8E94"/><stop offset=".31" stop-color="#048E92"/><stop offset=".38" stop-color="#018F92"/><stop offset=".5" stop-color="#039295"/><stop offset=".62" stop-color="#0C9EA1"/><stop offset=".74" stop-color="#1BB1B5"/><stop offset=".85" stop-color="#30CBD1"/><stop offset=".97" stop-color="#4AEDF4"/><stop offset="1" stop-color="#52F7FF"/></linearGradient><linearGradient id="paint2_linear_2150_11494" x1="18.805" y1="18.44" x2="22.802" y2="24.56" gradientUnits="userSpaceOnUse"><stop stop-color="#52F7FF"/><stop offset=".13" stop-color="#4FF1F9"/><stop offset=".29" stop-color="#47E2E9"/><stop offset=".47" stop-color="#3AC9CE"/><stop offset=".67" stop-color="#28A7A9"/><stop offset=".88" stop-color="#127B7A"/><stop offset="1" stop-color="#035E5B"/></linearGradient><clipPath id="clip0_2150_11494"><path fill="#fff" transform="translate(9 9)" d="M0 0h22v22H0z"/></clipPath></defs></svg>