<svg width="40" height="40" viewBox="0 0 40 40" fill="none" xmlns="http://www.w3.org/2000/svg"><path d="M22 1.153l13.32 7.69a4 4 0 012 3.465v15.381a4 4 0 01-2 3.464L22 38.843a4 4 0 01-4 0l-13.32-7.69a4 4 0 01-2-3.464V12.308a4 4 0 012-3.464L18 1.154a4 4 0 014 0z" fill="url(#paint0_linear_2150_14793)"/><path d="M12.439 22.192l4.641 2.742a.762.762 0 01.374.655v3.512a.403.403 0 01-.73.234l-4.742-6.646c-.217-.303.135-.688.457-.498z" fill="url(#paint1_radial_2150_14793)"/><path d="M17.047 29.611a.502.502 0 01-.412-.215l-4.742-6.645a.444.444 0 01.036-.57.445.445 0 01.564-.084l4.642 2.742a.873.873 0 01.427.748V29.1c0 .227-.14.418-.355.487a.535.535 0 01-.16.025zm-4.786-7.363a.24.24 0 00-.173.079.23.23 0 00-.019.299l4.742 6.645c.092.13.23.141.33.11a.287.287 0 00.204-.281v-3.512a.655.655 0 00-.32-.562l-4.642-2.742a.24.24 0 00-.122-.036z" fill="url(#paint2_linear_2150_14793)"/><path d="M27.937 22.192l-4.641 2.742a.762.762 0 00-.374.655v3.512c0 .392.503.553.73.234l4.742-6.646c.217-.303-.136-.688-.457-.498z" fill="url(#paint3_radial_2150_14793)"/><path d="M23.33 29.611a.514.514 0 01-.161-.025.502.502 0 01-.355-.487v-3.512c0-.306.164-.592.427-.748l4.642-2.742a.445.445 0 01.565.084.445.445 0 01.035.57l-4.742 6.645a.502.502 0 01-.411.215zm4.784-7.363a.24.24 0 00-.122.035l-4.641 2.742a.655.655 0 00-.321.562V29.1c0 .159.106.25.205.28.099.033.238.02.33-.109l4.74-6.645a.23.23 0 00-.018-.299.24.24 0 00-.173-.079z" fill="url(#paint4_linear_2150_14793)"/><path d="M14.461 18.865l.01.049c.045.178.159.33.316.423l5.06 2.99a.684.684 0 00.35.096h.003v-6.165l-5.739 2.608v-.001z" fill="url(#paint5_radial_2150_14793)"/><path d="M20.147 22.503a.85.85 0 01-.327-.136l-5.06-2.932a.807.807 0 01-.382-.551l-.01-.093.077-.037 5.906-2.684-.14 6.433h-.063zm-5.515-3.574a.571.571 0 00.248.303l5.06 2.99a.569.569 0 00.175.068v-5.853l-5.483 2.492z" fill="#FCFEFF"/><path d="M25.893 18.863a.683.683 0 00-.088-.47l-5.022-8.358a.685.685 0 00-.584-.332v6.553l5.693 2.607z" fill="url(#paint6_radial_2150_14793)"/><path d="M25.858 18.938l-5.693-2.608-.05-.076V9.702l.085-.085a.775.775 0 01.656.373l5.022 8.358c.095.158.13.345.098.527l-.118.062v.001zM20.284 16.2l5.535 2.534a.603.603 0 00-.085-.3l-5.023-8.357a.606.606 0 00-.427-.285V16.2z" fill="url(#paint7_linear_2150_14793)"/><path d="M20.2 22.416c.12 0 .24-.033.347-.096l5.022-2.99a.681.681 0 00.323-.472L20.2 16.25v6.165z" fill="url(#paint8_linear_2150_14793)"/><path d="M20.2 22.498l-.084-.085v-6.165l.119-.076 5.693 2.607.048.091c-.003.019-.006.038-.011.056a.778.778 0 01-.353.474l-5.022 2.99a.769.769 0 01-.39.109v-.001zm.084-6.118v5.943a.599.599 0 00.22-.078l5.022-2.99a.603.603 0 00.27-.351l-5.511-2.524z" fill="url(#paint9_linear_2150_14793)"/><path d="M20.198 9.703h-.002a.685.685 0 00-.586.33l-5.06 8.358a.681.681 0 00-.088.473l5.738-2.608V9.704h-.002z" fill="url(#paint10_linear_2150_14793)"/><path d="M14.496 18.94l-.118-.063a.768.768 0 01.1-.531l5.06-8.358a.774.774 0 01.658-.37h.01v.006l.078.078v6.552l-.05.077-5.738 2.608zm5.62-9.149a.604.604 0 00-.434.284l-5.06 8.358a.598.598 0 00-.086.304l5.58-2.537V9.792z" fill="url(#paint11_linear_2150_14793)"/><defs><linearGradient id="paint0_linear_2150_14793" x1="2.679" y1=".617" x2="41.198" y2="35.041" gradientUnits="userSpaceOnUse"><stop stop-color="#8155FF"/><stop offset="1" stop-color="#6935FF"/></linearGradient><linearGradient id="paint2_linear_2150_14793" x1="11.807" y1="25.821" x2="17.562" y2="25.821" gradientUnits="userSpaceOnUse"><stop stop-color="#FCFEFF"/><stop offset="1" stop-color="#F7F8F8"/></linearGradient><linearGradient id="paint4_linear_2150_14793" x1="22.814" y1="25.821" x2="28.569" y2="25.821" gradientUnits="userSpaceOnUse"><stop stop-color="#FCFEFF"/><stop offset="1" stop-color="#F7F8F8"/></linearGradient><linearGradient id="paint7_linear_2150_14793" x1="20.116" y1="14.278" x2="25.988" y2="14.278" gradientUnits="userSpaceOnUse"><stop stop-color="#FCFEFF"/><stop offset="1" stop-color="#F7F8F8"/></linearGradient><linearGradient id="paint8_linear_2150_14793" x1="21.064" y1="22.166" x2="23.323" y2="16.939" gradientUnits="userSpaceOnUse"><stop stop-color="#FAEDA5"/><stop offset=".12" stop-color="#E5EFB5"/><stop offset=".39" stop-color="#B9F3D9"/><stop offset=".52" stop-color="#A9F5E7"/><stop offset=".58" stop-color="#AFF5E8"/><stop offset=".65" stop-color="#C1F7EE"/><stop offset=".74" stop-color="#DFFAF6"/><stop offset=".8" stop-color="#FCFEFF"/></linearGradient><linearGradient id="paint9_linear_2150_14793" x1="20.116" y1="19.335" x2="25.976" y2="19.335" gradientUnits="userSpaceOnUse"><stop stop-color="#FCFEFF"/><stop offset="1" stop-color="#F7F8F8"/></linearGradient><linearGradient id="paint10_linear_2150_14793" x1="14.451" y1="14.283" x2="20.81" y2="14.283" gradientUnits="userSpaceOnUse"><stop offset=".28" stop-color="#FAF0BB"/><stop offset=".4" stop-color="#F7EDBD"/><stop offset=".47" stop-color="#EFE4C4"/><stop offset=".54" stop-color="#E0D5D0"/><stop offset=".59" stop-color="#CDBFE2"/><stop offset=".65" stop-color="#B3A4F9"/><stop offset=".7" stop-color="#B8AAF9"/><stop offset=".78" stop-color="#C7BDFA"/><stop offset=".87" stop-color="#E0DCFC"/><stop offset=".95" stop-color="#FCFEFF"/></linearGradient><linearGradient id="paint11_linear_2150_14793" x1="14.367" y1="14.278" x2="20.284" y2="14.278" gradientUnits="userSpaceOnUse"><stop stop-color="#FCFEFF"/><stop offset="1" stop-color="#F7F8F8"/></linearGradient><radialGradient id="paint1_radial_2150_14793" cx="0" cy="0" r="1" gradientUnits="userSpaceOnUse" gradientTransform="translate(14.767 27.902) scale(7.51877)"><stop offset=".04" stop-color="#E66E95"/><stop offset=".14" stop-color="#E58FAA"/><stop offset=".29" stop-color="#E4B5C4"/><stop offset=".43" stop-color="#E4D4D8"/><stop offset=".57" stop-color="#E4EAE6"/><stop offset=".71" stop-color="#E4F7EF"/><stop offset=".83" stop-color="#E4FCF2"/></radialGradient><radialGradient id="paint3_radial_2150_14793" cx="0" cy="0" r="1" gradientUnits="userSpaceOnUse" gradientTransform="translate(25.674 29.441) scale(7.74619)"><stop offset=".12" stop-color="#E6638E"/><stop offset=".26" stop-color="#E589A6"/><stop offset=".48" stop-color="#E4BAC7"/><stop offset=".67" stop-color="#E4DEDE"/><stop offset=".83" stop-color="#E4F4EC"/><stop offset=".93" stop-color="#E4FCF2"/></radialGradient><radialGradient id="paint5_radial_2150_14793" cx="0" cy="0" r="1" gradientUnits="userSpaceOnUse" gradientTransform="translate(22.168 15.809) scale(13.4543)"><stop offset=".16" stop-color="#A290D5"/><stop offset=".28" stop-color="#CDBFCD"/><stop offset=".38" stop-color="#EDE3C8"/><stop offset=".44" stop-color="#FAF1C6"/><stop offset=".47" stop-color="#E6F5D3"/><stop offset=".51" stop-color="#D5F9DE"/><stop offset=".56" stop-color="#C9FCE7"/><stop offset=".62" stop-color="#C2FDEB"/><stop offset=".8" stop-color="#C1FEED"/></radialGradient><radialGradient id="paint6_radial_2150_14793" cx="0" cy="0" r="1" gradientUnits="userSpaceOnUse" gradientTransform="translate(18.858 16.944) scale(6.84519)"><stop offset=".04" stop-color="#FCFEFF"/><stop offset=".48" stop-color="#F5D0DC"/><stop offset="1" stop-color="#ED98B0"/></radialGradient></defs></svg>