<svg width="40" height="40" viewBox="0 0 40 40" fill="none" xmlns="http://www.w3.org/2000/svg"><path d="M22 1.153l13.32 7.69a4 4 0 012 3.465v15.381a4 4 0 01-2 3.464L22 38.843a4 4 0 01-4 0l-13.32-7.69a4 4 0 01-2-3.464V12.308a4 4 0 012-3.464L18 1.154a4 4 0 014 0z" fill="url(#paint0_linear_2150_13269)"/><path d="M30.521 16.788c-1.412-4.62-5.79-7.957-10.905-7.781-5.83.2-10.526 4.993-10.613 10.825C8.91 25.974 13.879 31 20 31c5.014 0 9.255-3.371 10.575-7.965.277-.965.425-1.983.425-3.035 0-1.117-.167-2.196-.479-3.212zm-10.52 13.053c-5.557 0-10.053-4.629-9.834-10.232.204-5.236 4.542-9.424 9.782-9.451 4.325-.022 8.015 2.76 9.356 6.63A9.786 9.786 0 0129.843 20a9.778 9.778 0 01-.48 3.035C28.083 26.982 24.37 29.84 20 29.84z" fill="url(#paint1_linear_2150_13269)"/><g clip-path="url(#clip0_2150_13269)"><path d="M19.99 14.008l-.087.296V22.9l.087.087 3.99-2.358-3.99-6.621z" fill="url(#paint2_linear_2150_13269)"/><path d="M19.99 14.008L16 20.628l3.99 2.359v-8.979z" fill="url(#paint3_linear_2150_13269)"/><path d="M19.99 23.74l-.049.06v3.062l.05.144 3.992-5.623-3.993 2.357z" fill="url(#paint4_linear_2150_13269)"/><path d="M19.99 27.006V23.74L16 21.383l3.99 5.623z" fill="url(#paint5_linear_2150_13269)"/><path d="M19.99 22.985l3.99-2.359-3.99-1.814v4.173z" fill="url(#paint6_linear_2150_13269)"/><path d="M16 20.626l3.99 2.359v-4.172L16 20.625z" fill="url(#paint7_linear_2150_13269)"/></g><defs><linearGradient id="paint0_linear_2150_13269" x1="2.679" y1=".617" x2="41.198" y2="35.041" gradientUnits="userSpaceOnUse"><stop stop-color="#1F484D"/><stop offset="1" stop-color="#143438"/></linearGradient><linearGradient id="paint1_linear_2150_13269" x1="26.5" y1="9" x2="12" y2="30" gradientUnits="userSpaceOnUse"><stop stop-color="#34B1BC"/><stop offset=".645" stop-color="#B3A4EA"/><stop offset="1" stop-color="#86CAD8"/></linearGradient><linearGradient id="paint2_linear_2150_13269" x1="21.096" y1="14.441" x2="21.564" y2="18.492" gradientUnits="userSpaceOnUse"><stop stop-color="#7BCDDA"/><stop offset="1" stop-color="#B6C3C4"/></linearGradient><linearGradient id="paint3_linear_2150_13269" x1="17.878" y1="15.672" x2="18.161" y2="19.652" gradientUnits="userSpaceOnUse"><stop stop-color="#ACC9F3"/><stop offset="1" stop-color="#9EE3F9"/></linearGradient><linearGradient id="paint4_linear_2150_13269" x1="19.594" y1="26.081" x2="22.791" y2="21.369" gradientUnits="userSpaceOnUse"><stop stop-color="#7BCDDA"/><stop offset=".53" stop-color="#B6C3C4"/><stop offset="1" stop-color="#A0D3D5"/></linearGradient><linearGradient id="paint5_linear_2150_13269" x1="17.995" y1="26.728" x2="17.995" y2="23.245" gradientUnits="userSpaceOnUse"><stop stop-color="#B8B6EE"/><stop offset="1" stop-color="#AEF7FE"/></linearGradient><linearGradient id="paint6_linear_2150_13269" x1="19.699" y1="22.549" x2="22.207" y2="19.445" gradientUnits="userSpaceOnUse"><stop stop-color="#7288A3"/><stop offset="1" stop-color="#77949A"/></linearGradient><linearGradient id="paint7_linear_2150_13269" x1="16.662" y1="22.383" x2="20.306" y2="20.758" gradientUnits="userSpaceOnUse"><stop stop-color="#7BCDDA"/><stop offset="1" stop-color="#B6C3C4"/></linearGradient><clipPath id="clip0_2150_13269"><path fill="#fff" transform="translate(16 14)" d="M0 0h7.983v13H0z"/></clipPath></defs></svg>