<svg width="40" height="40" viewBox="0 0 40 40" fill="none" xmlns="http://www.w3.org/2000/svg"><path d="M22 1.153l13.32 7.69a4 4 0 012 3.465v15.381a4 4 0 01-2 3.464L22 38.843a4 4 0 01-4 0l-13.32-7.69a4 4 0 01-2-3.464V12.308a4 4 0 012-3.464L18 1.154a4 4 0 014 0z" fill="url(#paint0_linear_2150_14271)"/><g clip-path="url(#clip0_2150_14271)" fill="#000"><path d="M11.123 14.25H10.01v1.115h1.114V14.25zM11.115 15.828H10v1.115h1.115v-1.115zM11.115 17.406H10v1.115h1.115v-1.115zM11.115 18.977H10v1.114h1.115v-1.114zM11.115 20.555H10v1.114h1.115v-1.114zM11.115 22.125H10v1.115h1.115v-1.115zM11.115 23.703H10v1.115h1.115v-1.115zM11.115 25.281H10v1.115h1.115v-1.115zM30 14.25h-1.115v1.115H30V14.25zM29.991 15.828h-1.114v1.115h1.114v-1.115zM29.991 17.406h-1.114v1.115h1.114v-1.115zM29.991 18.977h-1.114v1.114h1.114v-1.114zM29.991 20.555h-1.114v1.114h1.114v-1.114zM29.991 22.125h-1.114v1.115h1.114v-1.115zM29.991 23.703h-1.114v1.115h1.114v-1.115zM29.991 25.281h-1.114v1.115h1.114v-1.115zM26.953 14.25h-2.814v1.115h2.814V14.25zM26.944 15.828H25.83v1.115h1.114v-1.115zM26.944 17.406H25.83v1.115h1.114v-1.115zM26.944 18.977H25.83v1.114h1.114v-1.114zM26.944 20.555H24.14v1.114h2.805v-1.114zM26.944 22.125h-4.329v1.115h4.33v-1.115zM26.944 23.703h-4.329v1.115h4.33v-1.115zM26.944 25.281H25.83v1.115h1.114v-1.115zM22.244 14.258h-4.515v1.115h4.515v-1.115zM23.73 15.828h-1.115v1.115h1.115v-1.115zM20.553 15.836h-1.115v1.115h1.115v-1.115zM17.413 15.836h-1.115v1.115h1.115v-1.115zM23.73 17.406h-7.45v1.115h7.45v-1.115zM23.73 18.977h-7.45v1.114h7.45v-1.114zM22.244 20.555H16.28v1.114h5.964v-1.114zM20.59 22.133h-4.31v1.115h4.31v-1.115zM20.553 23.695h-1.115v1.115h1.115v-1.115zM17.395 23.695H16.28v1.115h1.114v-1.115zM20.59 25.273h-2.712v1.115h2.712v-1.115zM15.834 14.25h-2.765v1.115h2.765V14.25zM14.162 15.828h-1.115v1.115h1.115v-1.115zM14.162 17.406h-1.115v1.115h1.115v-1.115zM14.162 18.977h-1.115v1.114h1.115v-1.114zM14.162 20.555h-1.115v1.114h1.115v-1.114zM14.162 22.125h-1.115v1.115h1.115v-1.115zM14.162 23.703h-1.115v1.115h1.115v-1.115zM15.812 25.281h-2.765v1.115h2.765v-1.115zM10 26.672h19.991v.828c0 .26-.212.472-.472.472H10.473A.473.473 0 0110 27.5v-.828zM10.473 12.492h19.046c.26 0 .472.212.472.473v.828H10v-.828c0-.261.212-.473.473-.473z"/></g><defs><linearGradient id="paint0_linear_2150_14271" x1="2.679" y1=".617" x2="41.198" y2="35.041" gradientUnits="userSpaceOnUse"><stop stop-color="#FFB58A"/><stop offset="1" stop-color="#FF7B38"/></linearGradient><clipPath id="clip0_2150_14271"><path fill="#fff" transform="translate(10 12.5)" d="M0 0h20v15.476H0z"/></clipPath></defs></svg>