<svg width="40" height="40" viewBox="0 0 40 40" fill="none" xmlns="http://www.w3.org/2000/svg"><path d="M22 1.153l13.32 7.69a4 4 0 012 3.465v15.381a4 4 0 01-2 3.464L22 38.843a4 4 0 01-4 0l-13.32-7.69a4 4 0 01-2-3.464V12.308a4 4 0 012-3.464L18 1.154a4 4 0 014 0z" fill="url(#paint0_linear_2150_11821)"/><path d="M20.702 23.839c-.236.137-.466.285-.713.404v3.195c.055.012.059-.04.078-.067.57-.785 1.137-1.572 1.705-2.358.716-.99 1.475-2.108 2.19-3.099" fill="#fff"/><path d="M19.942 24.21c-1.03-.598-2.058-1.195-3.088-1.791-.271-.157-.537-.323-.816-.464v-.002c-.002.044.033.07.055.1 1.077 1.494 2.155 2.986 3.234 4.478.22.306.446.609.669.913v-3.2l-.054-.035zM20.005 23.5l-4.002-2.34 3.996-6.48 3.997 6.486-3.991 2.334z" fill="#fff"/><path d="M23.087 19.758c-.624.66-.16.928-.564 1.236l-.41.667-.215.234.057.022-.076.123c.064.019.135.038.21.056l-.088.03-.556.447c.246.08.609.182 1.055.239.811.104 1.54.017 2.185-.143l-1.266 1.205 4.226-1.924.265-.682c.166-.083.362-.177.601-.285a23.135 23.135 0 011.695-.685c.027-.01.022-.05-.007-.055-.501-.072-1.166-.137-1.581-.174-.08-.008-.387.008.026-.174l.183-.11c.223-.164.5-.356.869-.594.68-.437 1.287-.778 1.748-1.023.08-.043.058-.163-.032-.176-.441-.062-.85-.108-1.229-.139a.095.095 0 01-.073-.145l.134-.216c.154-.157.328-.33.527-.522.773-.744 1.467-.948 1.987-1.264.074-.046.043-.16-.044-.162a28.68 28.68 0 00-1.554.013l-4.136-.007-3.916 3.861M16.745 19.758c.623.66.159.928.563 1.236l.41.667.215.234a4.344 4.344 0 01-.057.022l.076.123a5.736 5.736 0 01-.21.056l.088.03.556.447a5.73 5.73 0 01-1.055.239 5.853 5.853 0 01-2.185-.143l1.266 1.205-4.225-1.924-.266-.682a15.82 15.82 0 00-.601-.285 23.12 23.12 0 00-1.694-.685c-.028-.01-.023-.05.006-.055.501-.072 1.166-.137 1.581-.174.08-.008.387.008-.026-.174l-.182-.11c-.224-.164-.5-.356-.87-.594a24.263 24.263 0 00-1.748-1.023c-.08-.043-.058-.163.032-.176.441-.062.85-.108 1.229-.139a.095.095 0 00.073-.145l-.133-.216c-.155-.157-.329-.33-.528-.522-.773-.744-1.467-.948-1.987-1.264-.074-.046-.043-.16.045-.162.568-.01 1.083-.005 1.553.013l4.136-.007 3.917 3.861" fill="#00D2D0"/><path d="M11.497 15.549l1.31-.002 3.916 3.861-2.805-1.274-2.421-2.585z" fill="#fff"/><path d="M12.444 22.067l1.052.514.351-1.622-.007-2.646-1.396 3.755z" fill="#00D2D0"/><path d="M11.497 15.555l-.46 2.496 1.15 3.902 1.731-3.814-2.421-2.584z" fill="#00F9E4"/><path d="M15.125 23.286l-1.155-2.333-.474 1.622 1.629.71z" fill="#00435A"/><path d="M11.037 18.048l-1.36-.202-2.604-2.14-.157-1.034 4.58.88" fill="#00ECEC"/><path d="M8.087 18.01l3.72 2.268-.77-2.224-1.36-.202-1.59.158z" fill="#00BDC0"/><path d="M9.49 20.227l2.696 1.714-.38-1.678-.392-.24-1.924.204z" fill="#00D2D0"/><path d="M20.018 22.583l-.004 6.492 3.677-3.48.619-6.072-4.292 3.06z" fill="#00435A"/><path d="M15.718 19.523l-1.748 1.438 2.294 4.633-.546-6.07z" fill="url(#paint1_radial_2150_11821)"/><path d="M20.014 29.075l-3.75-3.481-.546-6.07 4.292 2.938.004 6.613z" fill="#00435A"/><path d="M24.31 19.523l1.674 1.438-2.294 4.633.62-6.07z" fill="url(#paint2_radial_2150_11821)"/><path d="M28.334 15.549l-1.31-.002-3.916 3.861 2.805-1.274 2.421-2.585z" fill="#fff"/><path d="M28.334 15.555l.46 2.496-1.15 3.902-1.73-3.814 2.42-2.584z" fill="#00F9E4"/><path d="M27.388 22.067l-1.053.514-.351-1.622.007-2.646 1.397 3.755z" fill="#00D2D0"/><path d="M24.856 23.23l1.128-2.277.351 1.622-1.479.656z" fill="#00435A"/><path d="M28.794 18.048l1.361-.202 2.603-2.14.158-1.034-4.582.88" fill="#00ECEC"/><path d="M31.744 18.01l-3.72 2.268.77-2.224 1.361-.202 1.589.158z" fill="#00BDC0"/><path d="M30.341 20.227l-2.696 1.714.38-1.678.392-.24 1.924.204z" fill="#00D2D0"/><path d="M32.826 15.264l.09-.592-4.582.88.104.563 4.388-.85zM7.006 15.264l-.09-.592 4.58.88-.103.563-4.387-.85zM20.742 23.862c-.236.137-.466.285-.713.405v3.194c.055.012.06-.04.078-.067.57-.785 1.137-1.571 1.705-2.357.716-.99 1.475-2.108 2.19-3.1" fill="#fff"/><path d="M19.982 24.233c-1.03-.597-2.058-1.195-3.088-1.79-.271-.157-.536-.324-.816-.465l.001-.001c-.002.044.032.07.054.1 1.077 1.493 2.155 2.986 3.234 4.478.221.305.446.608.669.912v-3.2l-.054-.034zM20.045 23.524l-4.002-2.34 3.997-6.48 3.996 6.485-3.99 2.335z" fill="#fff"/><defs><radialGradient id="paint1_radial_2150_11821" cx="0" cy="0" r="1" gradientUnits="userSpaceOnUse" gradientTransform="matrix(3.71039 0 0 3.7104 16.688 22.918)"><stop offset=".13" stop-color="#00A9A9"/><stop offset=".78" stop-color="#00CFCE"/><stop offset=".82" stop-color="#00D2D0"/><stop offset=".99" stop-color="#fff"/></radialGradient><radialGradient id="paint2_radial_2150_11821" cx="0" cy="0" r="1" gradientUnits="userSpaceOnUse" gradientTransform="rotate(-180 11.633 11.46) scale(3.7106)"><stop offset=".13" stop-color="#00A9A9"/><stop offset=".78" stop-color="#00CFCE"/><stop offset=".82" stop-color="#00D2D0"/><stop offset=".99" stop-color="#fff"/></radialGradient><linearGradient id="paint0_linear_2150_11821" x1="2.679" y1=".617" x2="41.198" y2="35.041" gradientUnits="userSpaceOnUse"><stop stop-color="#2D2D2D"/><stop offset="1" stop-color="#171717"/></linearGradient></defs></svg>