<svg width="40" height="40" viewBox="0 0 40 40" fill="none" xmlns="http://www.w3.org/2000/svg"><path d="M22 1.153l13.32 7.69a4 4 0 012 3.465v15.381a4 4 0 01-2 3.464L22 38.843a4 4 0 01-4 0l-13.32-7.69a4 4 0 01-2-3.464V12.308a4 4 0 012-3.464L18 1.154a4 4 0 014 0z" fill="url(#paint0_linear_2150_12250)"/><path fill-rule="evenodd" clip-rule="evenodd" d="M10.2 18.71s0 2.438 9.706 2.438c9.707 0 9.707-2.437 9.707-2.437 0 2.437-2.294 7.566-3.712 8.442-1.419.875-.876-2.925-2.294-2.825C22.19 24.416 21.314 30 19.895 30c-1.418 0-2.293-5.75-3.712-5.661-1.418.088-.875 3.71-2.293 2.825-1.396-.887-3.69-6.016-3.69-8.453z" fill="#fff"/><path fill-rule="evenodd" clip-rule="evenodd" d="M12.494 18.71c0-.786 3.313-1.429 7.412-1.429 4.1 0 7.413.643 7.413 1.43 0 .786-3.712 1.428-7.413 1.428-3.712 0-7.412-.642-7.412-1.429zM23.618 11.861c0-1.03.831-1.861 1.862-1.861 1.03 0 1.861.83 1.861 1.861 0 1.03-.83 1.861-1.861 1.861a1.865 1.865 0 01-1.862-1.86z" fill="#fff"/><defs><linearGradient id="paint0_linear_2150_12250" x1="2.679" y1="39.375" x2="41.195" y2="4.942" gradientUnits="userSpaceOnUse"><stop offset=".141" stop-color="#FF59DC"/><stop offset=".859" stop-color="#35FFE7"/><stop offset="1" stop-color="#FFFD00" stop-opacity=".897"/></linearGradient></defs></svg>